<svg width="139" height="46" viewBox="0 0 139 46" fill="none" xmlns="http://www.w3.org/2000/svg">
<rect x="88.8782" y="1.04468" width="50.033" height="44.1066" rx="22.0533" fill="#F30000"/>
<path d="M10.5079 33.4246C8.66833 33.4246 6.90729 33.1667 5.22477 32.6507C3.54225 32.1123 2.20745 31.428 1.22037 30.598L2.73464 27.1993C3.67685 27.9396 4.8434 28.5565 6.23428 29.0501C7.62517 29.5436 9.04971 29.7904 10.5079 29.7904C11.7417 29.7904 12.74 29.6558 13.5028 29.3866C14.2655 29.1174 14.8264 28.7584 15.1853 28.3098C15.5442 27.8387 15.7237 27.3115 15.7237 26.7282C15.7237 26.0103 15.4657 25.4383 14.9497 25.012C14.4338 24.5634 13.7608 24.2156 12.9307 23.9689C12.1231 23.6997 11.2146 23.4529 10.205 23.2286C9.21796 23.0042 8.21966 22.7462 7.21015 22.4546C6.22307 22.1405 5.31451 21.7479 4.48446 21.2768C3.67685 20.7833 3.01506 20.1327 2.49909 19.3251C1.98311 18.5175 1.72512 17.4855 1.72512 16.2293C1.72512 14.9505 2.06163 13.784 2.73464 12.7296C3.43008 11.6528 4.47324 10.8003 5.86413 10.1722C7.27745 9.52161 9.06092 9.19632 11.2146 9.19632C12.6279 9.19632 14.03 9.37579 15.4209 9.73473C16.8117 10.0937 18.0232 10.6096 19.0551 11.2826L17.6754 14.6813C16.6211 14.0532 15.533 13.5933 14.4113 13.3017C13.2897 12.9876 12.2128 12.8306 11.1809 12.8306C9.96948 12.8306 8.9824 12.9764 8.21966 13.268C7.47935 13.5597 6.92973 13.941 6.57079 14.4121C6.23428 14.8832 6.06603 15.4217 6.06603 16.0274C6.06603 16.7452 6.3128 17.3285 6.80634 17.7772C7.32232 18.2034 7.98411 18.5399 8.79172 18.7867C9.62176 19.0335 10.5415 19.2802 11.5511 19.527C12.5606 19.7513 13.5589 20.0093 14.5459 20.301C15.5555 20.5926 16.464 20.974 17.2716 21.4451C18.1017 21.9162 18.7635 22.5555 19.257 23.3632C19.773 24.1708 20.031 25.1915 20.031 26.4253C20.031 27.6816 19.6832 28.8482 18.9878 29.925C18.3148 30.9794 17.2716 31.8319 15.8583 32.4824C14.445 33.1106 12.6615 33.4246 10.5079 33.4246ZM21.0373 33.0881L31.6372 9.53282H35.9445L46.578 33.0881H42.0016L32.8823 11.8547H34.6321L25.5465 33.0881H21.0373ZM25.9166 27.6368L27.0944 24.2044H39.8143L40.992 27.6368H25.9166ZM49.5737 33.0881V9.53282H53.1743L67.9468 27.6704H66.1634V9.53282H70.5043V33.0881H66.9037L52.1311 14.9505H53.9146V33.0881H49.5737ZM81.5945 33.0881V13.2344H73.7876V9.53282H93.7759V13.2344H85.969V33.0881H81.5945Z" fill="#370000"/>
<path d="M92.5445 33.0881L103.144 9.53282H107.452L118.085 33.0881H113.509L104.389 11.8547H106.139L97.0537 33.0881H92.5445ZM97.4238 27.6368L98.6016 24.2044H111.321L112.499 27.6368H97.4238ZM121.081 33.0881V9.53282H125.455V33.0881H121.081Z" fill="white"/>
</svg>
