<svg width="25" height="25" viewBox="0 0 25 25" fill="none" xmlns="http://www.w3.org/2000/svg">
<path d="M18.5364 13.1019L14.8104 16.0819H9.81036V15.0819H13.8754C13.9658 15.0819 14.0545 15.0573 14.1321 15.0108C14.2097 14.9643 14.2732 14.8976 14.3159 14.8179C14.3586 14.7382 14.3789 14.6484 14.3745 14.558C14.3702 14.4677 14.3415 14.3802 14.2914 14.3049L13.4034 12.9729C13.2212 12.6987 12.974 12.4739 12.6838 12.3184C12.3937 12.1629 12.0696 12.0817 11.7404 12.0819H3.81036C3.54515 12.0819 3.29079 12.1873 3.10326 12.3748C2.91572 12.5623 2.81036 12.8167 2.81036 13.0819V19.0819C2.81036 19.6123 3.02108 20.121 3.39615 20.4961C3.77122 20.8712 4.27993 21.0819 4.81036 21.0819H14.4494C14.877 21.082 15.2997 20.9907 15.6891 20.8141C16.0785 20.6375 16.4257 20.3797 16.7074 20.0579L22.8104 13.0819L21.3584 12.5979C20.8833 12.4396 20.3762 12.4027 19.8832 12.4908C19.3903 12.5788 18.9272 12.7889 18.5364 13.1019ZM20.0684 7.47191C20.5194 7.00691 20.7984 6.36391 20.7984 5.65391C20.7984 4.94391 20.5194 4.30091 20.0684 3.83591C19.8403 3.59789 19.5665 3.40841 19.2633 3.27884C18.9602 3.14927 18.634 3.08229 18.3044 3.08191C18.3044 3.08191 17.0604 3.07891 15.8104 4.36791C14.5604 3.07891 13.3164 3.08191 13.3164 3.08191C12.9868 3.08233 12.6607 3.14923 12.3576 3.27862C12.0545 3.408 11.7806 3.59721 11.5524 3.83491C11.1014 4.30091 10.8224 4.94291 10.8224 5.65291C10.8224 6.36291 11.1014 7.00691 11.5524 7.47091L15.8104 12.0819L20.0684 7.47191Z" fill="#370000"/>
</svg>
