<svg width="140" height="46" viewBox="0 0 140 46" fill="none" xmlns="http://www.w3.org/2000/svg">
<rect x="89.1071" y="0.956543" width="50.033" height="44.1066" rx="22.0533" fill="#F30000"/>
<path d="M10.7368 33.3365C8.89722 33.3365 7.13618 33.0785 5.45365 32.5625C3.77113 32.0241 2.43633 31.3399 1.44925 30.5099L2.96352 27.1112C3.90573 27.8515 5.07228 28.4684 6.46317 28.9619C7.85405 29.4555 9.27859 29.7023 10.7368 29.7023C11.9706 29.7023 12.9689 29.5677 13.7317 29.2985C14.4944 29.0292 15.0552 28.6703 15.4142 28.2216C15.7731 27.7505 15.9526 27.2233 15.9526 26.6401C15.9526 25.9222 15.6946 25.3501 15.1786 24.9239C14.6627 24.4752 13.9896 24.1275 13.1596 23.8807C12.352 23.6115 11.4434 23.3648 10.4339 23.1404C9.44684 22.9161 8.44854 22.6581 7.43903 22.3665C6.45195 22.0524 5.54339 21.6598 4.71334 21.1887C3.90573 20.6952 3.24394 20.0446 2.72797 19.237C2.21199 18.4294 1.95401 17.3974 1.95401 16.1411C1.95401 14.8624 2.29051 13.6959 2.96352 12.6415C3.65896 11.5647 4.70213 10.7122 6.09301 10.084C7.50633 9.43347 9.2898 9.10818 11.4434 9.10818C12.8568 9.10818 14.2589 9.28765 15.6497 9.64659C17.0406 10.0055 18.252 10.5215 19.284 11.1945L17.9043 14.5932C16.8499 13.9651 15.7619 13.5052 14.6402 13.2135C13.5185 12.8995 12.4417 12.7424 11.4098 12.7424C10.1984 12.7424 9.21129 12.8882 8.44854 13.1799C7.70823 13.4715 7.15861 13.8529 6.79967 14.324C6.46317 14.7951 6.29491 15.3335 6.29491 15.9392C6.29491 16.6571 6.54168 17.2404 7.03522 17.689C7.5512 18.1153 8.21299 18.4518 9.0206 18.6986C9.85064 18.9453 10.7704 19.1921 11.7799 19.4389C12.7895 19.6632 13.7877 19.9212 14.7748 20.2128C15.7843 20.5045 16.6929 20.8858 17.5005 21.3569C18.3306 21.8281 18.9923 22.4674 19.4859 23.275C20.0019 24.0826 20.2598 25.1034 20.2598 26.3372C20.2598 27.5935 19.9121 28.76 19.2167 29.8369C18.5437 30.8912 17.5005 31.7437 16.0872 32.3943C14.6739 33.0224 12.8904 33.3365 10.7368 33.3365ZM21.2662 33L31.8661 9.44469H36.1734L46.8069 33H42.2304L33.1112 11.7666H34.861L25.7754 33H21.2662ZM26.1455 27.5486L27.3233 24.1163H40.0432L41.2209 27.5486H26.1455ZM49.8026 33V9.44469H53.4032L68.1757 27.5823H66.3922V9.44469H70.7331V33H67.1326L52.36 14.8624H54.1435V33H49.8026ZM81.8233 33V13.1462H74.0164V9.44469H94.0048V13.1462H86.1979V33H81.8233Z" fill="#370000"/>
<path d="M92.7734 33L103.373 9.44469H107.681L118.314 33H113.738L104.618 11.7666H106.368L97.2826 33H92.7734ZM97.6527 27.5486L98.8305 24.1163H111.55L112.728 27.5486H97.6527ZM121.31 33V9.44469H125.684V33H121.31Z" fill="white"/>
</svg>
