<svg width="35" height="35" viewBox="0 0 35 35" fill="none" xmlns="http://www.w3.org/2000/svg">
<path d="M17.4999 20.4166C19.9208 20.4166 21.8749 18.4625 21.8749 16.0416V7.29163C21.8749 4.87079 19.9208 2.91663 17.4999 2.91663C15.0791 2.91663 13.1249 4.87079 13.1249 7.29163V16.0416C13.1249 18.4625 15.0791 20.4166 17.4999 20.4166ZM26.1187 16.0416C25.4041 16.0416 24.8062 16.5666 24.6895 17.2812C24.0916 20.7083 21.102 23.3333 17.4999 23.3333C13.8979 23.3333 10.9083 20.7083 10.3104 17.2812C10.2589 16.9382 10.0867 16.6248 9.82465 16.3975C9.56262 16.1703 9.22804 16.044 8.88119 16.0416C7.99161 16.0416 7.29161 16.8291 7.42286 17.7041C8.13744 22.0791 11.6374 25.5062 16.0416 26.1333V29.1666C16.0416 29.9687 16.6979 30.625 17.4999 30.625C18.302 30.625 18.9583 29.9687 18.9583 29.1666V26.1333C21.1043 25.8267 23.0967 24.8443 24.6465 23.3286C26.1963 21.8129 27.2228 19.8428 27.577 17.7041C27.7229 16.8291 27.0083 16.0416 26.1187 16.0416Z" fill="white"/>
</svg>
