<svg width="25" height="25" viewBox="0 0 25 25" fill="none" xmlns="http://www.w3.org/2000/svg">
<path d="M20.8104 2.08191H4.81036C3.71036 2.08191 2.82036 2.98191 2.82036 4.08191L2.81036 22.0819L6.81036 18.0819H20.8104C21.9104 18.0819 22.8104 17.1819 22.8104 16.0819V4.08191C22.8104 2.98191 21.9104 2.08191 20.8104 2.08191ZM7.81036 9.08191H17.8104C18.3604 9.08191 18.8104 9.53191 18.8104 10.0819C18.8104 10.6319 18.3604 11.0819 17.8104 11.0819H7.81036C7.26036 11.0819 6.81036 10.6319 6.81036 10.0819C6.81036 9.53191 7.26036 9.08191 7.81036 9.08191ZM13.8104 14.0819H7.81036C7.26036 14.0819 6.81036 13.6319 6.81036 13.0819C6.81036 12.5319 7.26036 12.0819 7.81036 12.0819H13.8104C14.3604 12.0819 14.8104 12.5319 14.8104 13.0819C14.8104 13.6319 14.3604 14.0819 13.8104 14.0819ZM17.8104 8.08191H7.81036C7.26036 8.08191 6.81036 7.63191 6.81036 7.08191C6.81036 6.53191 7.26036 6.08191 7.81036 6.08191H17.8104C18.3604 6.08191 18.8104 6.53191 18.8104 7.08191C18.8104 7.63191 18.3604 8.08191 17.8104 8.08191Z" fill="#370000"/>
</svg>
