<svg width="25" height="25" viewBox="0 0 25 25" fill="none" xmlns="http://www.w3.org/2000/svg">
<path d="M4.81036 13.0819H10.8104C11.3604 13.0819 11.8104 12.6319 11.8104 12.0819V4.08191C11.8104 3.53191 11.3604 3.08191 10.8104 3.08191H4.81036C4.26036 3.08191 3.81036 3.53191 3.81036 4.08191V12.0819C3.81036 12.6319 4.26036 13.0819 4.81036 13.0819ZM4.81036 21.0819H10.8104C11.3604 21.0819 11.8104 20.6319 11.8104 20.0819V16.0819C11.8104 15.5319 11.3604 15.0819 10.8104 15.0819H4.81036C4.26036 15.0819 3.81036 15.5319 3.81036 16.0819V20.0819C3.81036 20.6319 4.26036 21.0819 4.81036 21.0819ZM14.8104 21.0819H20.8104C21.3604 21.0819 21.8104 20.6319 21.8104 20.0819V12.0819C21.8104 11.5319 21.3604 11.0819 20.8104 11.0819H14.8104C14.2604 11.0819 13.8104 11.5319 13.8104 12.0819V20.0819C13.8104 20.6319 14.2604 21.0819 14.8104 21.0819ZM13.8104 4.08191V8.08191C13.8104 8.63191 14.2604 9.08191 14.8104 9.08191H20.8104C21.3604 9.08191 21.8104 8.63191 21.8104 8.08191V4.08191C21.8104 3.53191 21.3604 3.08191 20.8104 3.08191H14.8104C14.2604 3.08191 13.8104 3.53191 13.8104 4.08191Z" fill="#370000"/>
</svg>
