<svg width="25" height="25" viewBox="0 0 25 25" fill="none" xmlns="http://www.w3.org/2000/svg">
<g clip-path="url(#clip0_5_284)">
<mask id="mask0_5_284" style="mask-type:luminance" maskUnits="userSpaceOnUse" x="0" y="0" width="25" height="24">
<path d="M9.95237 21.6674C8.29839 21.1736 6.80046 20.26 5.60437 19.0154C5.9892 18.559 6.2291 17.9981 6.29336 17.4045C6.35762 16.811 6.24332 16.2118 5.96509 15.6835C5.68685 15.1553 5.25734 14.7221 4.73151 14.4394C4.20568 14.1566 3.60745 14.0372 3.01337 14.0964C2.87802 13.4335 2.81001 12.7585 2.81037 12.0819C2.81037 11.0369 2.97037 10.0289 3.26837 9.08192H3.31037C3.82024 9.08208 4.32175 8.95229 4.76753 8.70479C5.21331 8.4573 5.58866 8.10027 5.85813 7.66742C6.1276 7.23456 6.2823 6.74017 6.30763 6.23092C6.33295 5.72167 6.22806 5.21437 6.00287 4.75692C7.17516 3.66533 8.59289 2.87183 10.1364 2.44342C10.3876 2.93662 10.7703 3.35072 11.2422 3.6399C11.7142 3.92907 12.2569 4.08206 12.8104 4.08192C13.3638 4.08206 13.9066 3.92907 14.3785 3.6399C14.8504 3.35072 15.2332 2.93662 15.4844 2.44342C17.0278 2.87183 18.4456 3.66533 19.6179 4.75692C19.391 5.21758 19.2862 5.72874 19.3135 6.2415C19.3407 6.75425 19.4992 7.25143 19.7736 7.68543C20.048 8.11944 20.4292 8.47575 20.8807 8.72026C21.3322 8.96477 21.8389 9.0893 22.3524 9.08192C22.6568 10.0528 22.8113 11.0644 22.8104 12.0819C22.8104 12.7719 22.7404 13.4459 22.6074 14.0969C22.0133 14.0377 21.4151 14.1571 20.8892 14.4399C20.3634 14.7226 19.9339 15.1558 19.6556 15.684C19.3774 16.2123 19.2631 16.8115 19.3274 17.405C19.3916 17.9986 19.6315 18.5595 20.0164 19.0159C18.8202 20.2603 17.3223 21.1737 15.6684 21.6674C15.4741 21.0621 15.0927 20.534 14.5791 20.1594C14.0654 19.7848 13.4461 19.5829 12.8104 19.5829C12.1746 19.5829 11.5553 19.7848 11.0416 20.1594C10.528 20.534 10.1466 21.0621 9.95237 21.6674Z" fill="white" stroke="white" stroke-width="4" stroke-linejoin="round"/>
<path d="M12.8104 15.5819C13.27 15.5819 13.7251 15.4914 14.1498 15.3155C14.5744 15.1396 14.9602 14.8818 15.2852 14.5568C15.6102 14.2318 15.8681 13.8459 16.0439 13.4213C16.2198 12.9967 16.3104 12.5415 16.3104 12.0819C16.3104 11.6223 16.2198 11.1672 16.0439 10.7425C15.8681 10.3179 15.6102 9.93204 15.2852 9.60704C14.9602 9.28203 14.5744 9.02422 14.1498 8.84833C13.7251 8.67244 13.27 8.58191 12.8104 8.58191C11.8821 8.58191 10.9919 8.95066 10.3355 9.60704C9.67911 10.2634 9.31036 11.1537 9.31036 12.0819C9.31036 13.0102 9.67911 13.9004 10.3355 14.5568C10.9919 15.2132 11.8821 15.5819 12.8104 15.5819Z" fill="black" stroke="black" stroke-width="4" stroke-linejoin="round"/>
</mask>
<g mask="url(#mask0_5_284)">
<path d="M0.810364 0.0819092H24.8104V24.0819H0.810364V0.0819092Z" fill="#370000"/>
</g>
</g>
<defs>
<clipPath id="clip0_5_284">
<rect width="24" height="24" fill="white" transform="translate(0.810364 0.0819092)"/>
</clipPath>
</defs>
</svg>
