<svg width="25" height="25" viewBox="0 0 25 25" fill="none" xmlns="http://www.w3.org/2000/svg">
<path d="M9.87036 2.01188C7.98036 2.00188 6.14036 3.82188 6.98036 6.08188H3.81036C3.27993 6.08188 2.77122 6.2926 2.39615 6.66767C2.02108 7.04274 1.81036 7.55145 1.81036 8.08188V10.0819C1.81036 10.3471 1.91572 10.6015 2.10326 10.789C2.29079 10.9765 2.54515 11.0819 2.81036 11.0819H11.8104V8.08188H13.8104V11.0819H22.8104C23.0756 11.0819 23.3299 10.9765 23.5175 10.789C23.705 10.6015 23.8104 10.3471 23.8104 10.0819V8.08188C23.8104 7.55145 23.5996 7.04274 23.2246 6.66767C22.8495 6.2926 22.3408 6.08188 21.8104 6.08188H18.6404C19.8104 2.81188 15.4104 0.501882 13.3804 3.32188L12.8104 4.08188L12.2404 3.30188C11.6104 2.41188 10.7404 2.02188 9.87036 2.01188ZM9.81036 4.08188C10.7004 4.08188 11.1504 5.16188 10.5204 5.79188C9.89036 6.42188 8.81036 5.97188 8.81036 5.08188C8.81036 4.81667 8.91572 4.56231 9.10326 4.37478C9.29079 4.18724 9.54515 4.08188 9.81036 4.08188ZM15.8104 4.08188C16.7004 4.08188 17.1504 5.16188 16.5204 5.79188C15.8904 6.42188 14.8104 5.97188 14.8104 5.08188C14.8104 4.81667 14.9157 4.56231 15.1033 4.37478C15.2908 4.18724 15.5451 4.08188 15.8104 4.08188ZM2.81036 12.0819V20.0819C2.81036 20.6123 3.02108 21.121 3.39615 21.4961C3.77122 21.8712 4.27993 22.0819 4.81036 22.0819H20.8104C21.3408 22.0819 21.8495 21.8712 22.2246 21.4961C22.5996 21.121 22.8104 20.6123 22.8104 20.0819V12.0819H13.8104V20.0819H11.8104V12.0819H2.81036Z" fill="#370000"/>
</svg>
