<svg width="12" height="10" viewBox="0 0 12 10" fill="none" xmlns="http://www.w3.org/2000/svg">
<path d="M4.99817 0.266377C4.05104 0.261617 3.12898 1.12794 3.54992 2.20371H1.96136C1.69554 2.20371 1.44062 2.30401 1.25266 2.48255C1.0647 2.66109 0.959106 2.90323 0.959106 3.15572V4.10773C0.959106 4.23397 1.0119 4.35505 1.10588 4.44432C1.19986 4.53358 1.32732 4.58373 1.46023 4.58373H5.97035V3.15572H6.9726V4.58373H11.4827C11.6156 4.58373 11.7431 4.53358 11.8371 4.44432C11.931 4.35505 11.9838 4.23397 11.9838 4.10773V3.15572C11.9838 2.90323 11.8783 2.66109 11.6903 2.48255C11.5023 2.30401 11.2474 2.20371 10.9816 2.20371H9.39303C9.97935 0.64718 7.7744 -0.452389 6.75712 0.889942L6.47148 1.25171L6.18583 0.880422C5.87013 0.456779 5.43415 0.271137 4.99817 0.266377ZM4.9681 1.25171C5.4141 1.25171 5.63961 1.76579 5.3239 2.06567C5.00819 2.36556 4.46698 2.15135 4.46698 1.72771C4.46698 1.60147 4.51977 1.48039 4.61375 1.39112C4.70773 1.30186 4.8352 1.25171 4.9681 1.25171ZM7.97485 1.25171C8.42085 1.25171 8.64636 1.76579 8.33065 2.06567C8.01494 2.36556 7.47372 2.15135 7.47372 1.72771C7.47372 1.60147 7.52652 1.48039 7.6205 1.39112C7.71448 1.30186 7.84194 1.25171 7.97485 1.25171ZM1.46023 5.05974V8.86777C1.46023 9.12026 1.56582 9.36241 1.75378 9.54094C1.94174 9.71948 2.19667 9.81978 2.46248 9.81978H10.4805C10.7463 9.81978 11.0012 9.71948 11.1892 9.54094C11.3771 9.36241 11.4827 9.12026 11.4827 8.86777V5.05974H6.9726V8.86777H5.97035V5.05974H1.46023Z" fill="white"/>
</svg>
